<svg id="Capa_1" data-name="Capa 1" xmlns="http://www.w3.org/2000/svg" viewBox="0 0 255 330"><defs><style>.cls-1{fill:#fff;}.cls-2{fill:#8c1812;}</style></defs><path class="cls-1" d="M28.05,201.91c-14.74-17.49-23.2-37-27.19-57.78-1.59-8.22-1-16.72-1.31-25.1a7.06,7.06,0,0,1,1.26-3.94C1,120.26,10,122.5,7.44,128.44a40.46,40.46,0,0,0,25.4,9.4c9.63.26,19.36-1.78,30-2.91l-3-9.4c3.64,2.24,5.05-.52,5.44-2.25.32-1.44-1.28-3.3-2.47-4.72-.24-.29-2.49.55-4.27,1-9.17-9.15-20.59-13.4-31.55-12l13.92,3.75c-7.09-1-14.15-2.51-21.28-2.83-3.73-.16-7.94,1.27-11.28,2.88-2.66,1.27-5,2-5.85-.44a7,7,0,0,1,1.74-6.49c1.44-1.37,4.93-2,7.4-1.84,9,.63,18.13,1.31,27,2.78,8.1,1.34,15.95,3.72,24.73,5.85-.1-5.74-3.22-8.87-8.1-10C38.94,97.25,22.52,93,5.63,99.43c-.26.1-.69-.09-1.81-.25,7-22.63,16-44.28,36.06-62.78C45.54,40,51.07,43,55.86,46.67c5.89,4.5,12,9.08,16.55,14.43C79.85,69.77,86.27,79,92.86,88.18c2.21,3.07,3.48,6.57,5.41,9.78,4,6.75,4.11,6.73,2.45,13.83a36.71,36.71,0,0,1,5.53.36,18.65,18.65,0,0,1,3.83,1.56c.72-1,1.26-2.86,2.25-3a103.6,103.6,0,0,1,10.51-1c-.3,1.17-.11,2.83-1,3.42A123,123,0,0,1,108.63,121c-1.48.75-4,.12-7.63.12-2.67,2.22-.51,4.8,2.59,7.81l5.62-5.19-7.08,12.34c10.27,2.23,19.72,5.75,29.25,5.91,8.5.14,17.09-3.44,24.42-5.1.32-2.24.57-4,.82-5.82l2.06,0a35,35,0,0,1,3.95,22.38c-5.3,36.52-28.22,62.74-69.58,78C84.71,234.55,76.84,233,69.36,230A117.74,117.74,0,0,1,28,201.77c10.71-4.16,22-1.55,33.09-1.94a3.51,3.51,0,0,1,2.17,1.25,43.52,43.52,0,0,1,5.25,6.49c3,5.22,8.43,6.1,14.38,5.31,5.67-.76,11.22-2.24,12.47-8l-6-.5c0-.48-.07-1-.1-1.45,10.4-1.81,20.75-4.69,31.23-5.08,7.82-.3,12.11-3.36,16-6.47-5.29.81-11.36,1.79-17.45,2.63a65.61,65.61,0,0,1-10,.9c-4.12-.07-9.08.33-12.16-1.33-5.79-3.13-23.71-4.17-29.54-1-2.48,1.36-6.33,2.85-8.73,2.22-8.52-2.26-16,1-23.83,2.13C32.25,197.32,30.27,200.19,28.05,201.91Zm44-28c5.14,4.42,15.77,4.54,21.31.29A33.49,33.49,0,0,0,72.08,173.89Z" transform="translate(0.45 -0.52)"/><path class="cls-1" d="M109.85,302.52l.85,2.94L99.13,311.9l.31.74c5.61-1.31,11.16-2.81,16.84-3.83,2.39-.43,5,.16,7.58.28-.63,1.85-1.25,3.71-1.91,5.55a3.74,3.74,0,0,1-.55.81C112.23,328.54,112.27,329,94,330c-13.86.79-27.84.46-41.74.13-3-.07-6.26-1.91-8.67-3.62a89.93,89.93,0,0,1-12.31-10.36c-1.54-1.57-1.42-4.21-2.05-6.37,2.63-.17,5.36-.79,7.86-.39,3.9.61,7.59,2.07,11.46,2.89,4.5.94,6.86-.55,7-4.5a59.73,59.73,0,0,0-5.82-28.33c-2.28-4.83-2.21-10.39-4.3-15.31-2.4-5.61-.7-11.26-1.58-16.84-.15-.91.65-1.93,1-2.9l1.73-.18c.83,2.66,1.79,5.29,2.45,8,1.63,6.66,4.38,8.83,12.21,6.59,11.8-3.38,23.09-7.94,34.53-12.12,3.64-1.33,7-3.2,10.61-4.56,4-1.51,6-.15,5.31,3.31-1,5.37-2.47,10.7-3.58,16.06-2.3,11.16-3.67,22.22,3.43,32.82.81,1.21-.33,3.85-1.53,5.28-1.56,1.85-4.09,3.15-5.73,5.35Z" transform="translate(0.45 -0.52)"/><path class="cls-1" d="M189.25,33.29c1.49,5.91-2.58,6.45-7.7,6.63-10.77.38-11.56,1.06-19,12.89-4.76-.69-6.34-2.62-14.68-17.76,2.39-.17,6.34.45,7.35-.68,3.46-3.89-.83-6.4-4.68-9.25,3.75-3.91,7.1-7.84,11.07-11.31,1.61-1.42,4.53-1.87,6.9-2.67.63-.2,1.66.2,2.15-.08,4.3-2.51,4.55-2.75,7.78.13q10.18,9.12,19.75,18.69c1.09,1.09,1.64,3.69.8,4.65-1.67,1.92-4.38,2.15-6.7,0C191.77,34,190.74,33.88,189.25,33.29Z" transform="translate(0.45 -0.52)"/><path class="cls-1" d="M124.65,57.89c.12,1.41.19,2.23.3,3.49l-4.27-2.47c-.41,5.47-3.87,7.58-9.78,7.42-1.08,0-2.78.16-3.18.73-2.9,4.09-7.86,3.27-12.86,3.86-2-4.85,3.15-7.45,5-11,4-7.81,15.4-8.19,21.31-14.11.37-.37,2.38,0,3.36.46a16.71,16.71,0,0,0,5.57,2.09c-.21-1.81-.42-3.62-.76-6.62l14.54-6,10.43,13.61-.92.64-1.83-.74c-2.89,1.15-4.77,2.54-6.59,2.48-4.7-.15-6.94,1.79-8.44,5C132.85,64.54,132.81,64.52,124.65,57.89Z" transform="translate(0.45 -0.52)"/><path class="cls-1" d="M208,282.91c-1.8,2.69-3.36,5-5.53,8.22-2.86-2.85-5.52-5.31-7.83-8-.49-.56.26-2.68.59-2.7a34.93,34.93,0,0,1,5.6.43c.9-3.93,0-8.87,5.52-10.95l9,2.69c-.15-1.8-.3-3.6-.46-5.41l-1.56-1.17c5.34-2,10.64-4.15,16.07-6a4.22,4.22,0,0,1,3.26,1.06c3.51,4.16,6.8,8.44,10.16,12.68l-1.19.92-1.92-.61c-3.05,1.3-5.19,3-7.2,2.91-5.82-.3-8.27,2.25-9.86,6.15-3.24,7.93-4.39,8.12-11.35,2.06C210.56,284.56,209.65,284,208,282.91Z" transform="translate(0.45 -0.52)"/><path class="cls-1" d="M28.74.52C33.82,8,35.3,16,45.49,20.42l-6.6,4.9c-1.51-.8-3.24-2.09-3.62-1.86-7.18,4.26-10.74-.36-15.06-4.08l5.64-6.71c-2-2.29-5.79-5.19-5.18-6.08C22.4,4.12,25.92,2.49,28.74.52Z" transform="translate(0.45 -0.52)"/><path class="cls-1" d="M114.25,131.15l8.11-5.59,4,5.77,5.66-3.18c4.66,4.58,11.93-5,18,.95-2.86,5.07-7.41,8.33-14.37,9.73l5.18-7.8-1.64-1.26c-2.85,5.72-6.87,10.32-14.8,7.75C120.78,136.35,118,133.54,114.25,131.15Z" transform="translate(0.45 -0.52)"/><path class="cls-1" d="M49.1,135,53,128.09l-1.21-.59c-.68.7-1.69,1.32-2,2.11-1.41,4-4.85,5.35-9.56,5.17-5.38-.21-9.53-2.11-11.88-6.17-.94-1.62,4.21-7.21,6.27-6.78.7.15,1.2,1.24,1.59,2,.8,1.49,1.46,3,2.18,4.53l5.43-3.07c3,0,7-.9,9.82.23,3.19,1.28,5.29,4.36,7.86,6.66l-1.16,1.39Z" transform="translate(0.45 -0.52)"/><path class="cls-2" d="M40.86,111.29l-13.92-3.75c11-1.39,22.38,2.86,31.55,12,1.78-.44,4-1.28,4.27-1,1.19,1.42,2.79,3.28,2.47,4.72-.39,1.73-1.8,4.49-5.44,2.25C54.78,119.63,50.42,113.16,40.86,111.29Z" transform="translate(0.45 -0.52)"/><path class="cls-1" d="M26.17,286.71l20.44,15.91-.44.65c-6.49-2.21-13.18-4.08-19.4-6.71C21.15,294.19,25.38,290.68,26.17,286.71Z" transform="translate(0.45 -0.52)"/><path class="cls-1" d="M242.68,264.86c2.66-1.82,4.31-3.29,6.34-4.18.78-.34,2.83.38,3.62,1.11C255,264,255.86,265.91,251,267c-2.3.52-4.15,2.35-6.9,4l-5.84-6.43Z" transform="translate(0.45 -0.52)"/><path class="cls-1" d="M29,135.39c-3.34-2.73-6.87-5.33-9.91-8.27-1-.94-1.48-3.24-.75-4.09.9-1,3.32-1.19,4.44-1.54,2.48,4.92,4.57,9.08,6.66,13.24Z" transform="translate(0.45 -0.52)"/><path class="cls-1" d="M117.51,137.83a51.59,51.59,0,0,1-5.4-1.1c-2.32-.74-4.53-1.72-6.79-2.6l5-7.68Z" transform="translate(0.45 -0.52)"/><path class="cls-1" d="M113.74,101l-7.24,1.83c-.63-3.19-1.18-6-2-10.13Z" transform="translate(0.45 -0.52)"/><path class="cls-2" d="M28.05,201.91c2.22-1.72,4.2-4.59,6.73-5,7.8-1.12,15.31-4.39,23.83-2.13,2.4.63,6.25-.86,8.73-2.22,5.83-3.2,23.75-2.16,29.54,1,3.08,1.66,8,1.26,12.16,1.33a65.61,65.61,0,0,0,10-.9c6.09-.84,12.16-1.82,17.45-2.63-3.94,3.11-8.23,6.17-16,6.47-10.48.39-20.83,3.27-31.23,5.08,0,.48.06,1,.1,1.45l6,.5c-1.25,5.77-6.8,7.25-12.47,8-6,.79-11.37-.09-14.38-5.31a43.52,43.52,0,0,0-5.25-6.49A3.51,3.51,0,0,0,61,199.83c-11.06.39-22.38-2.22-33.09,1.94Z" transform="translate(0.45 -0.52)"/><path class="cls-2" d="M72.08,173.89a33.49,33.49,0,0,1,21.31.29C87.85,178.43,77.22,178.31,72.08,173.89Z" transform="translate(0.45 -0.52)"/></svg>