<svg id="Capa_1" data-name="Capa 1" xmlns="http://www.w3.org/2000/svg" viewBox="0 0 188.14 92.1"><defs><style>.cls-1,.cls-3{fill:#3f0209;}.cls-1{stroke:#fff;stroke-miterlimit:10;stroke-width:1.26px;}.cls-2{fill:#892727;}</style></defs><path class="cls-1" d="M104.57,76.79V78H25.66V76.79a11.06,11.06,0,0,0,5-1.4,14.45,14.45,0,0,0,4.21-4,29.76,29.76,0,0,0,3.38-5.7c1.1-2.32,2.54-5.8,4.35-10.45l2.2-5.69,2.43.15-2.31,6.14-1.35,3.35q-2.43,5.94-2.43,9.34a8,8,0,0,0,.89,3.72,7.63,7.63,0,0,0,2.4,2.81,10.86,10.86,0,0,0,5.4,1.73H69.08c3.21-.28,5.44-.83,6.7-1.62a6.56,6.56,0,0,0,3.35-5.83,16.91,16.91,0,0,0-1.52-5.94l-.91-2.27L72.48,50.77Q78.61,51,84.8,51l4.16,10a90.54,90.54,0,0,0,4.21,9.18,13.89,13.89,0,0,0,3.4,4.16,9.84,9.84,0,0,0,3,1.48A29.93,29.93,0,0,0,104.57,76.79Z" transform="translate(-5.99 -3.14)"/><path class="cls-1" d="M65.46,4.31H62.38L46,46.65l2.59-.15,0-.1a.35.35,0,0,1,0-.14.29.29,0,0,1,0-.09h0l10.7-28L70.38,45.5q6-.2,12-.31Z" transform="translate(-5.99 -3.14)"/><path class="cls-1" d="M170.51,48.9V78h-2.43L145.91,50.17c4.63-.19,9.29-.41,14-.66l8.44,10.76V49Z" transform="translate(-5.99 -3.14)"/><path class="cls-1" d="M128.54,76.79V78H103.65V76.79a17.16,17.16,0,0,0,5-.86,9.1,9.1,0,0,0,5.73-6.67,39.6,39.6,0,0,0,.62-8.18V51l2.21,0V61.08a39.67,39.67,0,0,0,.62,8.21,9.12,9.12,0,0,0,5.73,6.64A17.1,17.1,0,0,0,128.54,76.79Z" transform="translate(-5.99 -3.14)"/><path class="cls-1" d="M181.85,4.31V5.55q-5.4,0-8.42,3.14a9.08,9.08,0,0,0-2.3,4.4,39.25,39.25,0,0,0-.62,8.13V47.37l-2.21-.14v-26a39.54,39.54,0,0,0-.62-8.21,9.24,9.24,0,0,0-2.3-4.37A8.91,8.91,0,0,0,162,6.42a17.48,17.48,0,0,0-5-.87V4.31Z" transform="translate(-5.99 -3.14)"/><path class="cls-1" d="M157.58,46.6q-7.56-.41-15.08-.72L117.2,14.09V45.15l-2.21,0V21.22c0-1.21-.07-6-.06-7.21,0-13.67,9.51-9.7,9.51-9.7Z" transform="translate(-5.99 -3.14)"/><path class="cls-2" d="M181.85,48.16q-5.68.39-11.34.74L168.3,49c-2.82.18-5.63.33-8.44.48-4.66.25-9.32.47-14,.66q-14.47.6-28.71.84L115,51q-15.24.23-30.19,0-6.18-.09-12.32-.27-12.72-.36-25.23-1.07l-2.43-.15Q35.17,49,25.66,48.16,35.74,47.28,46,46.65q4.27-.27,8.58-.48,7.89-.41,15.85-.67,6-.2,12-.31,16.17-.31,32.61-.07l2.21,0q12.57.21,25.3.73,7.51.32,15.08.72,5.34.28,10.72.63l2.21.14Q176.17,47.75,181.85,48.16Z" transform="translate(-5.99 -3.14)"/><rect class="cls-3" x="20.29" y="74.18" width="101.65" height="0.71"/><path class="cls-3" d="M35.19,73.69a14.73,14.73,0,0,1-3,1.49c-7.4,2.7-14,1.09-19.77-3.81A13.9,13.9,0,0,1,8.78,54.62,12.91,12.91,0,0,1,24.5,47.46c5.6,1.68,8.72,6.77,7.26,11.85a8.29,8.29,0,0,1-11.49,5.47c-4.31-2-5.17-7.16-1.65-10,2.36-1.92,6.52-1.11,7.55,1.77a3.52,3.52,0,0,1-.53,3.28,3.23,3.23,0,0,1-3.32,1.29c-.69-.14-1-.49-.82-1.19a2.44,2.44,0,0,0,.07-1.39A1.34,1.34,0,0,1,21.8,57a.3.3,0,0,0-.1-.53.36.36,0,0,0-.54.34,3.92,3.92,0,0,0-.05,1.67A1.67,1.67,0,0,1,21,59.91a3.57,3.57,0,0,0-.89-1.45c-.28-.3-.61-.6-.53-1.06.05-.27,0-.51-.26-.61a.48.48,0,0,0-.35.12c-.3.26.06.44.1.66.2,1,1.4,1.43,1.45,2.49,0,.15-.35.2-.18.42,0,.87.72.72,1.23.91a3.75,3.75,0,0,0,4.32-.92,4.14,4.14,0,0,0,.63-4.75C25,53,21.07,52.2,18.39,54.07a6.4,6.4,0,0,0-1.34,9.21,8.93,8.93,0,0,0,10.33,2.39,9.87,9.87,0,0,0,4.53-13.75c-3.29-5.89-12-8-18.23-4.46A15.54,15.54,0,0,0,6.77,65.69C9.13,72.61,16.85,77.51,24,78a19.24,19.24,0,0,0,12.31-3A3.3,3.3,0,0,1,35.19,73.69Z" transform="translate(-5.99 -3.14)"/><path class="cls-3" d="M165.88,8.08A11.57,11.57,0,0,0,163.68,7c-5.45-2-10.31-.8-14.55,2.8a10.25,10.25,0,0,0-2.69,12.33A9.52,9.52,0,0,0,158,27.4c4.12-1.24,6.42-5,5.34-8.73a6.09,6.09,0,0,0-8.45-4c-3.18,1.44-3.81,5.27-1.22,7.37,1.74,1.42,4.8.82,5.56-1.3a2.63,2.63,0,0,0-.39-2.42,2.36,2.36,0,0,0-2.45-.94c-.5.1-.76.36-.6.87a1.81,1.81,0,0,1,.05,1,1,1,0,0,0,.17,1.1c.16.15.11.31-.08.39s-.37,0-.39-.25a3,3,0,0,1,0-1.23,1.22,1.22,0,0,0-.1-1,2.74,2.74,0,0,1-.66,1.07c-.21.22-.44.44-.38.78s0,.37-.2.45a.39.39,0,0,1-.26-.09c-.21-.19.05-.32.08-.48.15-.73,1-1.06,1.07-1.84,0-.11-.26-.14-.13-.31,0-.64.53-.53.9-.67a2.78,2.78,0,0,1,3.18.68,3.05,3.05,0,0,1,.47,3.49,4.2,4.2,0,0,1-6,1.22,4.7,4.7,0,0,1-1-6.78,6.55,6.55,0,0,1,7.6-1.76,7.26,7.26,0,0,1,3.33,10.12c-2.42,4.34-8.84,5.91-13.41,3.28A11.41,11.41,0,0,1,145,14c1.73-5.1,7.42-8.71,12.71-9a14.12,14.12,0,0,1,9.06,2.17A2.48,2.48,0,0,0,165.88,8.08Z" transform="translate(-5.99 -3.14)"/><path class="cls-3" d="M172.64,8.08A12,12,0,0,1,174.85,7c5.44-2,10.3-.8,14.55,2.8a10.26,10.26,0,0,1,2.68,12.33,9.51,9.51,0,0,1-11.57,5.28c-4.13-1.24-6.42-5-5.35-8.73a6.1,6.1,0,0,1,8.46-4c3.17,1.44,3.8,5.27,1.21,7.37-1.73,1.42-4.79.82-5.56-1.3a2.61,2.61,0,0,1,.4-2.42,2.35,2.35,0,0,1,2.44-.94c.51.1.76.36.6.87a1.81,1.81,0,0,0,0,1,1,1,0,0,1-.18,1.1.22.22,0,0,0,.08.39.26.26,0,0,0,.39-.25,2.84,2.84,0,0,0,0-1.23,1.23,1.23,0,0,1,.11-1,2.72,2.72,0,0,0,.65,1.07c.21.22.45.44.39.78s0,.37.19.45a.39.39,0,0,0,.26-.09c.22-.19,0-.32-.08-.48-.14-.73-1-1.06-1.07-1.84,0-.11.26-.14.14-.31,0-.64-.53-.53-.9-.67a2.8,2.8,0,0,0-3.19.68,3,3,0,0,0-.46,3.49,4.2,4.2,0,0,0,6,1.22,4.71,4.71,0,0,0,1-6.78,6.55,6.55,0,0,0-7.6-1.76,7.27,7.27,0,0,0-3.34,10.12c2.42,4.34,8.84,5.91,13.42,3.28A11.42,11.42,0,0,0,193.55,14c-1.73-5.1-7.42-8.71-12.71-9a14.07,14.07,0,0,0-9.05,2.17A2.54,2.54,0,0,1,172.64,8.08Z" transform="translate(-5.99 -3.14)"/><path d="M30.38,82.8h1.79l4.21,12.44H34.7l-2.17-6.95c-.45-1.39-.84-2.76-1.24-4.19h-.08c-.38,1.44-.78,2.8-1.23,4.19l-2.2,6.95H26.17Zm-2,7.39h5.73v1.26H28.39Z" transform="translate(-5.99 -3.14)"/><path d="M51.34,82.8H53l4.51,7.82,1.34,2.58h.08c-.08-1.26-.21-2.66-.21-4V82.8H60.2V95.24H58.56l-4.5-7.83-1.34-2.57h-.08c.08,1.26.2,2.59.2,3.89v6.51h-1.5Z" transform="translate(-5.99 -3.14)"/><path d="M79.44,82.8h1.79l4.2,12.44H83.76l-2.17-6.95c-.45-1.39-.85-2.76-1.25-4.19h-.07c-.39,1.44-.79,2.8-1.24,4.19l-2.19,6.95H75.23Zm-2,7.39h5.73v1.26H77.44Z" transform="translate(-5.99 -3.14)"/><path d="M102,84.14H98.25V82.8h9.11v1.34H103.6v11.1H102Z" transform="translate(-5.99 -3.14)"/><path d="M122.86,82.8H130v1.34h-5.59V88h4.71v1.34h-4.71V93.9h5.78v1.34h-7.37Z" transform="translate(-5.99 -3.14)"/><path d="M146.13,82.8H148l2.38,6.65c.3.85.59,1.72.89,2.59h.07c.3-.87.56-1.74.86-2.59l2.36-6.65h1.91V95.24H155V88.39c0-1.09.12-2.58.2-3.68h-.08l-1,2.84L151.83,94h-1.05l-2.36-6.43-1-2.84h-.08c.08,1.1.2,2.59.2,3.68v6.85h-1.43Z" transform="translate(-5.99 -3.14)"/><path d="M175.75,82.8h1.79l4.2,12.44h-1.67l-2.17-6.95c-.45-1.39-.85-2.76-1.25-4.19h-.07c-.39,1.44-.79,2.8-1.24,4.19l-2.19,6.95h-1.61Zm-2,7.39h5.73v1.26h-5.73Z" transform="translate(-5.99 -3.14)"/></svg>