<svg id="Capa_1" data-name="Capa 1" xmlns="http://www.w3.org/2000/svg" viewBox="0 0 177.9 152.79"><defs><style>.cls-1{fill:#840909;}</style></defs><path class="cls-1" d="M40.54,133.63l.19-.12a.13.13,0,0,0,0-.06Z" transform="translate(-13.05 -23.13)"/><path class="cls-1" d="M77.68,56.33c50.32-4.9,85.32,26,95,59.36-11.27-18.83-21.57-35.54-39.74-45.09C115.5,61.43,97.32,56.3,77.68,56.33Z" transform="translate(-13.05 -23.13)"/><path class="cls-1" d="M183.19,68.61c-2.05,2.41-4.89,1.14-7.54.66-20.23-3.68-39.66-10.62-58.8-17.69-24.75-9.11-49.5-12.73-74.73-9.72-1.27.19-2.54.31-3.75.55-.18,0-.3.06-.48.06A59,59,0,0,0,29,44a1.41,1.41,0,0,0-.49.12C18.57,46.69,15,50.74,13.8,53.21a5.61,5.61,0,0,0-.72,2.06A15.33,15.33,0,0,1,15,47a24.32,24.32,0,0,1,5.68-7,45,45,0,0,1,12.55-7.78.66.66,0,0,0,.24-.12h.06A68.42,68.42,0,0,1,57.57,24c13.22-1.63,26.5-.79,39.72,1,21.13,3,42.2,5.8,62.3,13.4,10.68,4.11,18.89,11,22.7,22.58C183.13,63.48,185.31,66.13,183.19,68.61Z" transform="translate(-13.05 -23.13)"/><polygon class="cls-1" points="151.58 126.19 166.09 126.19 151.45 127.14 151.58 126.19"/><path class="cls-1" d="M185.12,158.11s-5.34,13.11-5.34,13.76c0,5.71,11.17,5.06,11.17,0Z" transform="translate(-13.05 -23.13)"/><path class="cls-1" d="M172.66,149.31s9.55-1.06,11.65,0,.81,8.8.81,8.8.81-8.8-6-8.8" transform="translate(-13.05 -23.13)"/><path class="cls-1" d="M164.5,150.27a65,65,0,0,0-27.05,5.59c-16.32,7.45-32.34,5.64-48.93,1.6-8.9-2.18-16.93-8.08-26.64-6.8l-.12-.13c.36-4.67-.82-5.48-8.17-5.59.66-.61,1.84-.95,1.25-2.23-.52-1.12-1.44-1.09-2.42-.67-4.31,2-4.87-7.44-10.11-2.39.76-3.11,4.55-4,2.82-6.72-1.3-2-3-.64-4.39.52,1.61-8.34-3.27-7.61-9.4-6.11,7.83-5.19,3.95-10.08.62-14.73a120.1,120.1,0,0,0-9.56-12c-6.89-7.41-8.51-16.52-9.31-26.7,4.43,2.51,6.22,8.2,11.32,7.75,2.23-.19-1.26-3.49,1-4.76,2.92.59,4.26,4.28,7.77,4,2-4-3-6.68-1.87-10.81l6.84,3.72c.37.28.92.88,1.07.78.83-.52.56-1.21.05-1.85C39.85,71.4,38,66.59,42,70.08c6.49,5.61,12.78,4.28,20,1.81,26.5-9.06,52.34-8.7,76.07,8.45,9.56,6.91,16.59,16.49,23.16,26.34.41,3.45-1.3,4.9-4.45,5-1.77-1.23-3.75-3.21-3.89,1.18-11.17-7.49-23.65-9-37.75-9.16l6.28,7.61c2,5.14,2.5,10-2.52,13.77-2.77,2-5.84,2.7-8.79.39-4.61-3.62-5.1-7.84-2.91-13.5,2-5.12-.69-8.27-6.38-7.86-10-5.54-18.26-2.93-25.27,5.63q.87-5.28,1.72-10.55c1.64-2.34,3-4.76,2.85-8.26-5.3.38-9.23,2.72-12.79,5.95-2.65,1.78-5.33,3.53-8,5.36-6.36,4.44-8.07,9.33-3.94,17.05,9.44,17.63,22.33,30.12,42.06,34,6.75.69,13.49,1.9,20.24,1.93,6.09,0,12.55,2.22,18.31-1.83,1.12-.32,2.67,0,2.73-1.92l.57.23.22-.58c8.4.29,16.56-2.83,25-1.84A1.39,1.39,0,0,1,164.5,150.27Z" transform="translate(-13.05 -23.13)"/></svg>