<svg id="Capa_1" data-name="Capa 1" xmlns="http://www.w3.org/2000/svg" viewBox="0 0 182.49 193.13"><defs><style>.cls-1{fill:#840909;}.cls-2{font-size:52.68px;font-family:BaskOldFace, Baskerville Old Face;}</style></defs><path class="cls-1" d="M49.13,106.74l.19-.11a.07.07,0,0,1,0,0Z" transform="translate(-10.92 -3.93)"/><path class="cls-1" d="M83.7,34.82c46.81-4.56,79.38,24.15,88.36,55.23-10.47-17.52-20.06-33.07-37-42C118.88,39.57,102,34.79,83.7,34.82Z" transform="translate(-10.92 -3.93)"/><path class="cls-1" d="M181.87,46.24c-1.91,2.25-4.55,1.07-7,.62C156,43.43,137.94,37,120.14,30.4c-23-8.48-46.06-11.85-69.54-9-1.18.17-2.36.28-3.48.51-.17,0-.28.05-.45.05a56.16,56.16,0,0,0-8.31,1.46,1.48,1.48,0,0,0-.45.11c-9.21,2.36-12.53,6.13-13.65,8.43a5,5,0,0,0-.67,1.91,14.26,14.26,0,0,1,1.74-7.7,22.6,22.6,0,0,1,5.28-6.46,41.86,41.86,0,0,1,11.68-7.24.82.82,0,0,0,.23-.11h0A63.92,63.92,0,0,1,65,4.73c12.3-1.51,24.66-.73,37,1,19.66,2.75,39.26,5.39,58,12.47,9.94,3.82,17.58,10.28,21.12,21C181.81,41.47,183.83,43.94,181.87,46.24Z" transform="translate(-10.92 -3.93)"/><text class="cls-2" transform="translate(0 179.26)">OKAMI</text><polygon class="cls-1" points="153.69 117.41 167.18 117.41 153.56 118.3 153.69 117.41"/><path class="cls-1" d="M183.66,129.52s-5,12.2-5,12.8c0,5.32,10.38,4.72,10.38,0Z" transform="translate(-10.92 -3.93)"/><path class="cls-1" d="M172.06,121.33s8.89-1,10.85,0,.75,8.19.75,8.19.76-8.19-5.57-8.19" transform="translate(-10.92 -3.93)"/><path class="cls-1" d="M164.48,122.22a60.3,60.3,0,0,0-25.17,5.21c-15.18,6.93-30.09,5.25-45.53,1.48-8.29-2-15.76-7.51-24.79-6.33l-.11-.11c.34-4.35-.76-5.1-7.6-5.21.61-.56,1.71-.88,1.16-2.07-.48-1-1.34-1-2.25-.62-4,1.89-4.53-6.92-9.4-2.23.7-2.89,4.22-3.75,2.61-6.25-1.2-1.87-2.79-.6-4.07.49,1.49-7.77-3-7.08-8.75-5.69,7.28-4.83,3.67-9.38.58-13.71A113.71,113.71,0,0,0,32.26,76c-6.42-6.89-7.92-15.37-8.66-24.84,4.11,2.33,5.79,7.63,10.53,7.21,2.07-.18-1.17-3.25.93-4.43,2.72.55,4,4,7.23,3.74,1.85-3.68-2.76-6.22-1.74-10.06l6.36,3.47c.34.26.86.81,1,.73.77-.49.52-1.14.05-1.73.54-1.22-1.19-5.7,2.56-2.45,6,5.22,11.89,4,18.64,1.68,24.66-8.42,48.7-8.09,70.78,7.87,8.9,6.43,15.44,15.34,21.55,24.51.38,3.21-1.21,4.56-4.14,4.65-1.65-1.15-3.49-3-3.62,1.1-10.4-7-22-8.36-35.13-8.53L124.45,86c1.88,4.79,2.32,9.35-2.35,12.81-2.57,1.91-5.43,2.52-8.17.37-4.3-3.37-4.75-7.3-2.72-12.56,1.85-4.76-.63-7.69-5.93-7.32-9.29-5.15-17-2.72-23.51,5.24.53-3.27,1.07-6.54,1.6-9.82C84.9,72.52,86.18,70.27,86,67c-4.93.35-8.59,2.53-11.9,5.53-2.47,1.66-5,3.28-7.4,5-5.91,4.13-7.51,8.69-3.66,15.87,8.78,16.4,20.77,28,39.13,31.66,6.28.65,12.55,1.77,18.83,1.8,5.67,0,11.68,2.07,17-1.7,1-.3,2.49,0,2.54-1.79l.53.22.21-.55c7.81.27,15.4-2.63,23.26-1.71A1.25,1.25,0,0,1,164.48,122.22Z" transform="translate(-10.92 -3.93)"/></svg>