<svg xmlns="http://www.w3.org/2000/svg" xmlns:xlink="http://www.w3.org/1999/xlink" viewBox="0 0 242.13 118.83"><defs><style>.cls-1{isolation:isolate;}.cls-2{fill:#ffdaab;}.cls-10,.cls-11,.cls-12,.cls-13,.cls-14,.cls-16,.cls-17,.cls-18,.cls-19,.cls-2,.cls-20,.cls-21,.cls-22,.cls-23,.cls-24,.cls-25,.cls-26,.cls-27,.cls-29,.cls-3,.cls-30,.cls-5,.cls-6,.cls-7,.cls-8,.cls-9{fill-rule:evenodd;}.cls-3{fill:url(#Áåçûìÿííûé_ãðàäèåíò_79);}.cls-10,.cls-11,.cls-12,.cls-13,.cls-16,.cls-17,.cls-19,.cls-22,.cls-24,.cls-27,.cls-29,.cls-4,.cls-6,.cls-7,.cls-9{mix-blend-mode:multiply;}.cls-13,.cls-16,.cls-17,.cls-4{opacity:0.2;}.cls-4{fill:url(#Áåçûìÿííûé_ãðàäèåíò_84);}.cls-5{fill:url(#Áåçûìÿííûé_ãðàäèåíò_77);}.cls-10,.cls-11,.cls-12,.cls-6,.cls-7,.cls-8,.cls-9{opacity:0.3;}.cls-6{fill:url(#Áåçûìÿííûé_ãðàäèåíò_55);}.cls-7{fill:url(#Áåçûìÿííûé_ãðàäèåíò_55-2);}.cls-21,.cls-30,.cls-8{fill:#ffd599;mix-blend-mode:soft-light;}.cls-9{fill:url(#Áåçûìÿííûé_ãðàäèåíò_55-3);}.cls-10{fill:url(#Áåçûìÿííûé_ãðàäèåíò_55-4);}.cls-11{fill:url(#Áåçûìÿííûé_ãðàäèåíò_55-5);}.cls-12{fill:url(#Áåçûìÿííûé_ãðàäèåíò_55-6);}.cls-13{fill:url(#Áåçûìÿííûé_ãðàäèåíò_84-2);}.cls-14,.cls-28{fill:#a53456;}.cls-15{fill:url(#Áåçûìÿííûé_ãðàäèåíò_55-7);}.cls-16{fill:url(#Áåçûìÿííûé_ãðàäèåíò_84-3);}.cls-17{fill:url(#Áåçûìÿííûé_ãðàäèåíò_84-4);}.cls-18{fill:url(#Áåçûìÿííûé_ãðàäèåíò_97);}.cls-19,.cls-22,.cls-24,.cls-27,.cls-29{opacity:0.7;}.cls-19{fill:url(#Áåçûìÿííûé_ãðàäèåíò_55-9);}.cls-20{fill:url(#Áåçûìÿííûé_ãðàäèåíò_77-2);}.cls-21{opacity:0.5;}.cls-22{fill:url(#Áåçûìÿííûé_ãðàäèåíò_55-10);}.cls-23{fill:url(#Áåçûìÿííûé_ãðàäèåíò_97-2);}.cls-24{fill:url(#Áåçûìÿííûé_ãðàäèåíò_55-11);}.cls-25{fill:url(#Áåçûìÿííûé_ãðàäèåíò_77-3);}.cls-26{fill:#ffcdab;}.cls-27{fill:url(#Áåçûìÿííûé_ãðàäèåíò_55-12);}.cls-29{fill:url(#Áåçûìÿííûé_ãðàäèåíò_55-13);}</style><radialGradient id="Áåçûìÿííûé_ãðàäèåíò_79" cx="684.97" cy="408.68" r="120.49" gradientUnits="userSpaceOnUse"><stop offset="0" stop-color="#fbd767"/><stop offset="1" stop-color="#d65f6e"/></radialGradient><linearGradient id="Áåçûìÿííûé_ãðàäèåíò_84" x1="683.76" y1="352.76" x2="681.89" y2="444.09" gradientUnits="userSpaceOnUse"><stop offset="0" stop-color="#b34537"/><stop offset="1" stop-color="#dd9057"/></linearGradient><linearGradient id="Áåçûìÿííûé_ãðàäèåíò_77" x1="790.04" y1="467.34" x2="789.89" y2="467.33" gradientUnits="userSpaceOnUse"><stop offset="0" stop-color="#d65f6e"/><stop offset="1" stop-color="#fbd767"/></linearGradient><linearGradient id="Áåçûìÿííûé_ãðàäèåíò_55" x1="716.69" y1="435.96" x2="785.75" y2="380.66" gradientUnits="userSpaceOnUse"><stop offset="0" stop-color="#ffe48f"/><stop offset="1" stop-color="#c77781"/></linearGradient><linearGradient id="Áåçûìÿííûé_ãðàäèåíò_55-2" x1="712.98" y1="431.34" x2="782.05" y2="376.04" xlink:href="#Áåçûìÿííûé_ãðàäèåíò_55"/><linearGradient id="Áåçûìÿííûé_ãðàäèåíò_55-3" x1="734.19" y1="458.83" x2="803.25" y2="403.52" xlink:href="#Áåçûìÿííûé_ãðàäèåíò_55"/><linearGradient id="Áåçûìÿííûé_ãðàäèåíò_55-4" x1="726.8" y1="453.98" x2="795.86" y2="398.67" xlink:href="#Áåçûìÿííûé_ãðàäèåíò_55"/><linearGradient id="Áåçûìÿííûé_ãðàäèåíò_55-5" x1="656.05" y1="-4254.62" x2="691.82" y2="-4283.27" gradientTransform="matrix(-0.97, 0.25, -0.34, -2.12, -179.35, -8831.55)" xlink:href="#Áåçûìÿííûé_ãðàäèåíò_55"/><linearGradient id="Áåçûìÿííûé_ãðàäèåíò_55-6" x1="651.66" y1="-4258.25" x2="687.43" y2="-4286.9" gradientTransform="matrix(-0.97, 0.25, -0.34, -2.12, -179.35, -8831.55)" xlink:href="#Áåçûìÿííûé_ãðàäèåíò_55"/><linearGradient id="Áåçûìÿííûé_ãðàäèåíò_84-2" x1="108.02" y1="34.61" x2="109.7" y2="34.61" xlink:href="#Áåçûìÿííûé_ãðàäèåíò_84"/><linearGradient id="Áåçûìÿííûé_ãðàäèåíò_55-7" x1="667.58" y1="439.2" x2="691.12" y2="420.35" xlink:href="#Áåçûìÿííûé_ãðàäèåíò_55"/><linearGradient id="Áåçûìÿííûé_ãðàäèåíò_84-3" x1="769.42" y1="410.62" x2="769.15" y2="410.61" xlink:href="#Áåçûìÿííûé_ãðàäèåíò_84"/><linearGradient id="Áåçûìÿííûé_ãðàäèåíò_84-4" x1="790.04" y1="467.34" x2="789.89" y2="467.33" xlink:href="#Áåçûìÿííûé_ãðàäèåíò_84"/><linearGradient id="Áåçûìÿííûé_ãðàäèåíò_97" x1="820.72" y1="415.34" x2="772.16" y2="406.71" gradientUnits="userSpaceOnUse"><stop offset="0.27" stop-color="#4c8cff"/><stop offset="0.65" stop-color="#d65f6e"/><stop offset="0.72" stop-color="#df7d6c"/><stop offset="0.85" stop-color="#eeae69"/><stop offset="0.94" stop-color="#f8cc68"/><stop offset="1" stop-color="#fbd767"/></linearGradient><linearGradient id="Áåçûìÿííûé_ãðàäèåíò_55-9" x1="775.66" y1="450.01" x2="775.12" y2="460.53" xlink:href="#Áåçûìÿííûé_ãðàäèåíò_55"/><linearGradient id="Áåçûìÿííûé_ãðàäèåíò_77-2" x1="776.78" y1="443.18" x2="778.13" y2="494.44" xlink:href="#Áåçûìÿííûé_ãðàäèåíò_77"/><linearGradient id="Áåçûìÿííûé_ãðàäèåíò_55-10" x1="797.59" y1="350.65" x2="794.8" y2="364.58" xlink:href="#Áåçûìÿííûé_ãðàäèåíò_55"/><linearGradient id="Áåçûìÿííûé_ãðàäèåíò_97-2" x1="544.64" y1="410.37" x2="592.66" y2="410.64" xlink:href="#Áåçûìÿííûé_ãðàäèåíò_97"/><linearGradient id="Áåçûìÿííûé_ãðàäèåíò_55-11" x1="1361.23" y1="403.38" x2="1360.56" y2="416.49" gradientTransform="matrix(-1, -0.05, -0.05, 1, 1967.05, 116.31)" xlink:href="#Áåçûìÿííûé_ãðàäèåíò_55"/><linearGradient id="Áåçûìÿííûé_ãðàäèåíò_77-3" x1="1362.14" y1="400.7" x2="1363.49" y2="451.95" gradientTransform="matrix(-1, -0.05, -0.05, 1, 1967.05, 116.31)" xlink:href="#Áåçûìÿííûé_ãðàäèåíò_77"/><linearGradient id="Áåçûìÿííûé_ãðàäèåíò_55-12" x1="1365.82" y1="310.36" x2="1363.99" y2="319.55" gradientTransform="matrix(-1, -0.05, -0.05, 1, 1967.05, 116.31)" xlink:href="#Áåçûìÿííûé_ãðàäèåíò_55"/><linearGradient id="Áåçûìÿííûé_ãðàäèåíò_55-13" x1="591.87" y1="407.49" x2="556.8" y2="371.16" xlink:href="#Áåçûìÿííûé_ãðàäèåíò_55"/></defs><g class="cls-1"><g id="Ñëîé_1" data-name="Ñëîé 1"><path class="cls-2" d="M789.94,467.66c-10.92,6.6-25.89.7-43.52-2l.08-1.56.91-19-.12.95L745,463.61l-6.34-1-2.16,1.83C726,463.29,707.82,461,697,460.69l-1.79-12.49-1,12.44-3.34,0c-4.65,0-9.45.15-14.29.39l-.91.05c-.73,0-9.19.6-11.69.82l.07-.64h-7.66v-.71l-9.77.71-5.16,3c-20.56,2.63-36.32,5.7-36.32,5.7V370.26a211,211,0,0,0,25.61,5.44l.25,0,.34,2.26.57,3.8v-5.92a361.45,361.45,0,0,0,36.36,3.74L669.66,395l.7-13.91,1.67-1.29c.75,0,1.5.07,2.26.09q4.83.19,10,.27H685l.57,4.18,1.28-4.16h5.23c8.41-.06,16.46-.45,24-1.05l.38,1.42,5.81.62,18.85-1.41,3.71-4.12c1.73-.28,3.4-.56,5-.85l.61,1.45.51-.08a2.19,2.19,0,0,0,1.38.52,2.41,2.41,0,0,0,1.83-1h.07l.07-.18L755,374l.05-.12A240.75,240.75,0,0,0,779,368.09l1.13,10.21Z" transform="translate(-562.34 -353)"/><path class="cls-3" d="M788.62,467.66s-8,6.41-42.12-3.57l-.08,0,.87-18,.12-2.53L745,462l-6.34-1-2.16,1.83c-10.58-1.17-28.71-3.51-39.55-3.77l-1.7-8.27-1.1,8.21-3.34,0c-4.65,0-9.45.14-14.29.39l-.91.05-2.19.12-2,.13c-2.51.16-5,.35-7.53.56l.07-.64h-7.66v-.7l-9.77.7-2.5,1.48-2.66,1.57-3.71.48c-9.5,1.27-17.85,2.15-23.58,3.59-39.14,9.88-42.22.81-42.22.81l11.62-105s30.14,8.89,46.76,11.53l.42,1.65.59,2.3.57,2.22V374.3A364.41,364.41,0,0,0,668.24,378l2.12,1.47,1.67-1.28c4.17.18,8.5.31,13,.36l.57,4.18,1.28-4.16h1.54c9.75,0,19.05-.37,27.71-1.05l.38,1.42,5.81.61,18.85-1.41,3.71-4.11,4.76-.81a4.15,4.15,0,0,0,1.37,2.91,2.19,2.19,0,0,0,1.38.52,2.41,2.41,0,0,0,1.83-1,1.33,1.33,0,0,0,.14-.19L755,374a5.84,5.84,0,0,0,.12-1.13,5.49,5.49,0,0,0,0-.58A239.54,239.54,0,0,0,779,366.5l1.13,11.8Z" transform="translate(-562.34 -353)"/><path class="cls-4" d="M780.11,378.3,779,366.5a239.54,239.54,0,0,1-23.85,5.74,5.49,5.49,0,0,1,0,.58A5.84,5.84,0,0,1,755,374l-.69,1.6a1.33,1.33,0,0,1-.14.19,2.41,2.41,0,0,1-1.83,1,2.19,2.19,0,0,1-1.38-.52,4.15,4.15,0,0,1-1.37-2.91l-4.76.81-3.71,4.11-18.85,1.41L716.5,379l-.38-1.42c-8.66.68-18,1.09-27.71,1.05h-1.54l-1.28,4.16-.57-4.18c-4.49,0-8.82-.18-13-.36l-1.67,1.28L668.24,378a364.41,364.41,0,0,1-36.36-3.74v5.92l-.57-2.22-.34-2.26-.25,0-.42-1.65c-16.62-2.64-50.72-12.85-50.72-12.85l-6.69,106.1s5.45,8.81,41.25-.54c5.62-1.76,14.16-2.48,23.58-3.59l3.67-.45,2.7-1.6,2.5-1.48,9.77-.7v.7H664l-.07.64c2.5-.21,5-.4,7.53-.56l2-.13,2.19-.12.91-.05c4.84-.25,9.64-.39,14.29-.39l3.34,0,1.1-8.21,1.7,8.27c10.84.26,29,2.6,39.55,3.77l2.16-1.83,6.34,1,2.38-18.49-.12,2.53-.87,18,.08,0-.08,1.56c17.63,2.71,32.6,8.61,43.52,2Zm-36.49,78c-1.76.08-38.13.44-41.65-3.53s-6.51-19.54-7.13-19.81-2.11,22.28-3.43,22.37c-2.54.17-2.43-6.63-2.47-6.87,0,.28-.05,7.75-2,7.84s-7.39,1.32-8.62-1c-.86-1.6-3.18-12.31-3.49-19.25.2,6.69-1.07,17.75-2.77,19.51-2.46,2.56-54.06,3.17-57.67,0S595.1,377.08,601,373.7c5.38-3.08,23.51,1.23,25.1,3.17,5.6,6.84,5.72,12.95,8.89,29.41,0-.28-2-27.39-.53-28.09s38.35,4.36,40.77,2.91c0,0,9,1,9.07,1.14a12.39,12.39,0,0,1,1.24,3.53s2.21-4.13,4-5.56a.93.93,0,0,1,.58-.26,15.23,15.23,0,0,1,2,.25h0c2.73.46,6.92,1.37,8.46.9,2-.62,12.07,2.82,12.07,2.82l19-.8,2.55,16.11c0-.38-1.23-15.32-.7-16.11s23.77-4.75,24.3-4.31,1.67-3.52,3.43,17-6.51,66.31-9.68,66.13-4-20.6-4-20.6S745.38,456.21,743.62,456.3Z" transform="translate(-562.34 -353)"/><path class="cls-5" d="M790,467.71s0-.26-.08-.75A5,5,0,0,1,790,467.71Z" transform="translate(-562.34 -353)"/><path class="cls-6" d="M745.32,400.92c1,2.83,3.81,1.52,3.88,2s1.86,9.14,2.17,10.09a16.84,16.84,0,0,1-1.93,10c-2.24,3.76-10.57,3.28-10.37-.08s0-12.82,0-13.13-.65-3.05-.3-3.86S744.52,398.64,745.32,400.92Z" transform="translate(-562.34 -353)"/><path class="cls-7" d="M754.87,396.49c.15,4.66.54,6,1.25,6.15s2.75-2.65,2-5.23a63.16,63.16,0,0,1-1.29-7.24A11.28,11.28,0,0,0,754.87,396.49Z" transform="translate(-562.34 -353)"/><path class="cls-8" d="M636.86,415.51c1,3.82,2.3,1.62,2.42,2.34s2.46,12.51,2.78,13.8a58.23,58.23,0,0,1,.55,14.15c-.62,5.54-5.21,6-5.64,1.25s-2.06-17.89-2.1-18.33a46.72,46.72,0,0,1-.78-5.34C634.16,422.2,636.06,412.44,636.86,415.51Z" transform="translate(-562.34 -353)"/><path class="cls-8" d="M651,400.42c.82,6.49,1.25,8.3,1.66,8.41s1.07-4.05.26-7.56-1.86-9.93-1.86-9.93A36.11,36.11,0,0,0,651,400.42Z" transform="translate(-562.34 -353)"/><path class="cls-9" d="M754,443.41c.16,4.47,0,6.07,1.2,4.43s1-4.2,1.08-5.23.78-5.3-.1-6.29-2.62,1.25-2.62,1.25-2.63,3.27-1.09,4.56Z" transform="translate(-562.34 -353)"/><path class="cls-10" d="M756.08,428.88c-1.33-.05-.19,2.65.08,3.2S759.6,429,756.08,428.88Z" transform="translate(-562.34 -353)"/><path class="cls-11" d="M612.35,392.12c-.86-4.9-1.07-6.68-1.38-4.71a22.61,22.61,0,0,0,.37,5.89c.15,1.15.54,5.94,1.15,6.91s1.1-1.72,1.1-1.72.75-3.95-.24-5.16Z" transform="translate(-562.34 -353)"/><path class="cls-12" d="M614.76,410.62c.68-.12-.37-2.94-.61-3.51S613,410.93,614.76,410.62Z" transform="translate(-562.34 -353)"/><polygon class="cls-13" points="109.7 25.19 108.46 44.04 108.02 26.51 109.7 25.19"/><polygon class="cls-14" points="182.34 21.05 180.6 25.23 178.37 25.23 182.34 21.05"/><polygon class="cls-14" points="67.96 21.05 69.54 22.28 70.16 33.47 67.96 21.05"/><path class="cls-15" d="M674.59,430.94s.12,2.13.21,5.14C674.66,433.06,674.59,430.94,674.59,430.94Z" transform="translate(-562.34 -353)"/><path class="cls-15" d="M674.8,436.08c-.14-3-.21-5.14-.21-5.14S674.71,433.07,674.8,436.08Z" transform="translate(-562.34 -353)"/><path class="cls-16" d="M769.33,409.81c-.05.51-.14,1.05-.24,1.62Z" transform="translate(-562.34 -353)"/><path class="cls-17" d="M790,467.71s0-.26-.08-.75A5,5,0,0,1,790,467.71Z" transform="translate(-562.34 -353)"/><path class="cls-14" d="M785.61,354.05c-.08,1-.67,5.8-3.69,5.56-3.34-.26-3.34-4.84-3.34-4.84l1.81-.22a3.3,3.3,0,0,0,2.86,2.33C785,357,785.12,355.57,785.61,354.05Z" transform="translate(-562.34 -353)"/><path class="cls-18" d="M791.12,412.21A240.11,240.11,0,0,0,789.89,467c-.38-2.25-2.5-8.81-14.55-10.06a34.3,34.3,0,0,0-17,2.74A414.49,414.49,0,0,0,768,418.23q.59-3.36,1.13-6.8l.24-1.62c.2-1.32.39-2.65.57-4,1.09-8,1.91-15.51,2.53-22.13v-.09c1.51-16.18,1.82-27.08,1.82-27.08a35.41,35.41,0,0,1,4.39-1.72,3.2,3.2,0,0,0,2.75,2.07c2,.16,2.9-1.85,3.33-3.53,6.52-1,14.6-.25,19.74,7.28A260.07,260.07,0,0,0,791.12,412.21Z" transform="translate(-562.34 -353)"/><path class="cls-19" d="M779.23,467s1.46-2.1.85-2.54-7.14-3.53-11.89-1.68-4.08,2.28-4.08,2.28l-3.41-5.27s10.29-5.29,19-2,9.56,9.21,9.56,9.21l-5.28-3-.26,1.76Z" transform="translate(-562.34 -353)"/><path class="cls-20" d="M769.33,462.72l1.5-3.61s8.19-1.23,11.54,1.41,2.9,4,2.9,4a11.42,11.42,0,0,0-7-2.82A36,36,0,0,0,769.33,462.72Z" transform="translate(-562.34 -353)"/><path class="cls-2" d="M758.33,459.64s4.1,7,14.09,8.72c9,1.58,12.94-2.29,12.85-4s-4.84-3.35-9.42-3.44-6.52,2-6.52,2a18.69,18.69,0,0,1,6.78-.88c3.53.26,7.66,2.38,7.58,3.43s-4.05,2.82-10.48,1.76-12-7.39-12-7.39,9.69-3.44,17.79-1.32,9.24,8.18,9.24,8.18-3.78,3-10.91,3-30.91-5.9-30.91-5.9v1.76s23,5.07,31.23,5,12.27-2.93,12.27-2.93-.09-8-11.36-10.74C767.94,454.41,758.33,459.64,758.33,459.64Z" transform="translate(-562.34 -353)"/><path class="cls-21" d="M791.12,412.21A240.11,240.11,0,0,0,789.89,467c-.38-2.25-2.5-8.81-14.55-10.06a34.3,34.3,0,0,0-17,2.74A414.49,414.49,0,0,0,768,418.23c-3,20.44-6.94,37.67-6.46,38.07s3.52-9.07,13.91-8.9c4.14.07,6.43,1.5,7,1.5s2.2-7.31,2.2-7.31.26,6.78,1.93,5.55.62-23.69,2.91-37.34,9.77-36.54,10.21-44.11-7-10.3-11.53-10.57S781,365.7,781,366a44.86,44.86,0,0,0,.44-5.36c-.18-.53-.18-1.85-3.35-1.58s-5.43,22.76-5.61,24.52c1.51-16.18,1.82-27.08,1.82-27.08a35.41,35.41,0,0,1,4.39-1.72,3.2,3.2,0,0,0,2.75,2.07c2,.16,2.9-1.85,3.33-3.53,6.52-1,14.6-.25,19.74,7.28A260.07,260.07,0,0,0,791.12,412.21Z" transform="translate(-562.34 -353)"/><path class="cls-22" d="M798,354.77s-6.52,21.13-6.34,21.05,4-21.93,4-21.93Z" transform="translate(-562.34 -353)"/><path class="cls-14" d="M779.81,459c0-.23,1.59-8.72,1.59-8.72l.61,7.84-.79,1.23Z" transform="translate(-562.34 -353)"/><path class="cls-23" d="M603.17,461.8h0l-.09,0,0,0-.15-.08,0,0-.46-.22-.12-.06-.13-.06-.11,0-.18-.08-.05,0-.11-.05-.08,0-.16-.07-.31-.13-.15-.06-.18-.08-.12,0c-.37-.15-.77-.31-1.21-.46l-.16-.06L599,460l-.24-.08c-.51-.17-1.06-.34-1.64-.5l-.3-.08-.3-.09-.3-.07-.35-.09-.28-.07-.68-.15-.3-.06-.33-.07-.37-.07-.68-.12-.34-.05-.37-.06h0l-.43-.06H592l-.35,0-.38,0-.13,0-.24,0h-.12c-.07-.15-.14-.31-.22-.46a6,6,0,0,0-1.54-2.17l-.06,0c0,.05-.05.1-.07.16a5.46,5.46,0,0,0-.18.53,9.19,9.19,0,0,0-.25,1.39c0,.05,0,.11,0,.17l0,.29h-1.35l-.73,0-.36,0-.33,0h-.24l-.18,0-.33,0-.27,0-.19,0-.26,0h0l-.35,0h0l-.19,0-.32,0-.3.05-.29.05-.5.09-.2,0-.45.1-.18,0c-.42.1-.83.2-1.21.32l-.22.06-.51.17-.24.09-.23.08h0l-.22.08-.22.09-.12,0-.15.06-.61.27-.18.09-.4.21-.19.1-.19.1h0l-.36.21-.17.11-.36.23-.14.1-.16.11-.15.11-.16.12-.14.11-.15.12h0l-.14.12-.13.11-.39.35-.13.12-.12.12-.11.12-.09.09-.07.08-.17.19-.11.12-.13.15-.15.19c-.06.09-.13.17-.19.25h0l-.09.14a9.17,9.17,0,0,0-.88,1.49l0,.08-.15.33-.06.15c-.07.16-.12.31-.17.46l0,.07c0,.12-.07.23-.1.34a.14.14,0,0,0,0,.06c0,.14-.07.27-.1.39s0,.05,0,.08a240.16,240.16,0,0,0,1.67-54.74,260.11,260.11,0,0,0-10.6-52.22,17.58,17.58,0,0,1,2-2.2h0l0,0v0l0,.06h1.56l-.47-1,0,0c5.2-4.1,11.64-4.12,17-3,.24,1.18,2.81,2.06,4.52,2.15a2,2,0,0,0,1.42-.28.47.47,0,0,0,.06-.09,34.09,34.09,0,0,1,4.29,2s-.12,5.2,0,13.79c0,.19,0,.39,0,.58,0,.69,0,1.39,0,2.11,0,.19,0,.37,0,.56s0,.34,0,.51,0,.35,0,.53,0,.37,0,.56,0,.33,0,.5,0,.41,0,.62c0,.4,0,.79,0,1.2l0,1.11,0,.84c0,.22,0,.45,0,.67s0,.37,0,.56v.21c0,.21,0,.41,0,.62,0,.69.05,1.4.08,2.11v.14c.27,6.65.7,14.18,1.35,22.23.11,1.34.23,2.67.36,4,0,.55.11,1.09.16,1.64.24,2.3.49,4.59.77,6.85A413.62,413.62,0,0,0,603.17,461.8Z" transform="translate(-562.34 -353)"/><path class="cls-24" d="M581.91,468.08s-1.35-2.18-.71-2.59,7.31-3.14,12-1,4,2.49,4,2.49l3.68-5.09a32.41,32.41,0,0,0-9.81-3.44c-2.33-4.31-2.07-3-2.6-.26a16.57,16.57,0,0,0-6.43.72c-8.84,2.84-10,8.68-10,8.68l5.43-2.71.17,1.78Z" transform="translate(-562.34 -353)"/><path class="cls-25" d="M592,464.3l-1.3-3.69s-8.12-1.66-11.6.8-3.11,3.8-3.11,3.8a11.48,11.48,0,0,1,7.1-2.44A36.12,36.12,0,0,1,592,464.3Z" transform="translate(-562.34 -353)"/><path class="cls-26" d="M614.82,466.65l0,1.62s-23.32,4-31.53,3.52-12.09-3.57-12.09-3.57a9.43,9.43,0,0,1,1.75-4.37h0c1.57-2.23,4.55-4.69,10.15-5.75a24.63,24.63,0,0,1,4-.42h1.34c0,.16,0,.31-.05.46-.06.65-.06,1.14-.06,1.14-.46,0-.92,0-1.39,0a22.36,22.36,0,0,0-4.39.42c-8.2,1.68-9.67,7.69-9.67,7.69s3.62,3.19,10.75,3.57S614.82,466.65,614.82,466.65Z" transform="translate(-562.34 -353)"/><path class="cls-21" d="M603.17,461.8h0l-.09,0,0,0-.15-.08,0,0-.46-.22-.12-.06-.13-.06-.11,0-.18-.08-.05,0-.11-.05-.08,0-.16-.07-.31-.13-.15-.06-.18-.08-.12,0c-.37-.15-.77-.31-1.21-.46l-.16-.06L599,460l-.24-.08c-.51-.17-1.06-.34-1.64-.5l-.3-.08-.3-.09-.3-.07-.35-.09-.28-.07-.68-.15-.3-.06-.33-.07-.37-.07-.68-.12-.34-.05-.37-.06h0l-.43-.06H592l-.35,0-.38,0-.13,0-.24,0h-.12c-.07-.15-.14-.31-.22-.46a6,6,0,0,0-1.54-2.17l-.06,0c0,.05-.05.1-.07.16a5.46,5.46,0,0,0-.18.53,9.19,9.19,0,0,0-.25,1.39c0,.05,0,.11,0,.17l0,.29h-1.35l-.73,0-.36,0-.33,0h-.24l-.18,0-.33,0-.27,0-.19,0-.26,0h0l-.35,0h0l-.19,0-.32,0-.3.05-.29.05-.5.09-.2,0-.45.1-.18,0c-.42.1-.83.2-1.21.32l-.22.06-.51.17-.24.09-.23.08h0l-.22.08-.22.09-.12,0-.15.06-.61.27-.18.09-.4.21-.19.1-.19.1h0l-.36.21-.17.11-.36.23-.14.1-.16.11-.15.11-.16.12-.14.11-.15.12h0l-.14.12-.13.11-.39.35-.13.12-.12.12-.11.12-.09.09-.07.08-.17.19-.11.12-.13.15-.15.19c-.06.09-.13.17-.19.25h0l-.09.14a9.17,9.17,0,0,0-.88,1.49l0,.08-.15.33-.06.15c-.07.16-.12.31-.17.46l0,.07c0,.12-.07.23-.1.34a.14.14,0,0,0,0,.06c0,.14-.07.27-.1.39s0,.05,0,.08a240.16,240.16,0,0,0,1.67-54.74,260.11,260.11,0,0,0-10.6-52.22,17.58,17.58,0,0,1,2-2.2h0l0,0v0l0,.06h1.56l-.47-1,0,0c5.2-4.1,11.64-4.12,17-3,.24,1.18,2.81,2.06,4.52,2.15a2,2,0,0,0,1.42-.28.47.47,0,0,0,.06-.09,34.09,34.09,0,0,1,4.29,2s-.12,5.2,0,13.79c0,.19,0,.39,0,.58,0,.69,0,1.39,0,2.11,0,.19,0,.37,0,.56s0,.34,0,.51,0,.35,0,.53,0,.37,0,.56,0,.33,0,.5,0,.41,0,.62c0,.4,0,.79,0,1.2l0,1.11,0,.84c0,.22,0,.45,0,.67s0,.37,0,.56v.21c0,.21,0,.41,0,.62,0,.69.05,1.4.08,2.11-.11-2.09-1.31-24.33-4.31-24.74l-.53-.06a5.86,5.86,0,0,0-1.2,0,1.72,1.72,0,0,0-1.69,1.46,42.38,42.38,0,0,0,.15,5.38c-.06-.34-2.12-11.3-6.54-11.28-3.65,0-9.33,1.56-11.35,6.17a8.37,8.37,0,0,0-.52,1.65,9.56,9.56,0,0,0-.21,2.13c0,7.58,6.3,30.84,7.86,44.59s-.68,36.12.93,37.44,2.29,11,2.29,11,1.22-9.07,1.75-9.05,2.89-1.27,7-1.12c10.39.37,12.88,10,13.43,9.61s-2.51-17.78-4.44-38.35A413.62,413.62,0,0,0,603.17,461.8Z" transform="translate(-562.34 -353)"/><path class="cls-27" d="M586.8,356.44s1.05,14.72.88,14.62.88-15,.88-15Z" transform="translate(-562.34 -353)"/><path class="cls-14" d="M593,459.84l-1.66-.2,0-.08c-.14-.37-.32-.82-.53-1.3-.07-.15-.14-.31-.22-.46a5.88,5.88,0,0,0-1.6-2.21c.23-.49.56-.8,1-.7.91.2,1.77,1.8,2.35,3.13l.18.44h0C592.81,459.24,593,459.84,593,459.84Z" transform="translate(-562.34 -353)"/><path class="cls-2" d="M603.17,461.8s-4.46,6.73-14.52,8c-9.06,1.11-12.81-3-12.63-4.64s5-3.08,9.59-2.93,6.34,2.3,6.4,2.37a19,19,0,0,0-6.73-1.24c-3.53.08-7.77,2-7.74,3s3.89,3,10.37,2.32,12.35-6.76,12.35-6.76a40.89,40.89,0,0,0-7.26-2.07c-.54-.1-1.1-.2-1.67-.28l.89-1.55h.1a32.55,32.55,0,0,1,10.84,3.77Z" transform="translate(-562.34 -353)"/><path class="cls-28" d="M755.33,373c0,2.14-1.24,3.87-2.77,3.87a2.29,2.29,0,0,1-1.64-.74,2.85,2.85,0,0,0,.41,0c1.44,0,2.63-1.55,2.76-3.52l1.18-.46A5.32,5.32,0,0,1,755.33,373Z" transform="translate(-562.34 -353)"/><path class="cls-29" d="M579,416.41l-1.23-3.08L576,402.67l1.76-1.58a56.72,56.72,0,0,1-5.81-15.94c-.92-5.32-1.82-15.57-4.8-21.48-1.62-3.2-2.81-5.39-2.81-5.39l0,0v0l0,.06h1.56c.4.84,1,2.14,1.74,3.73,2.81,6.1,4.2,16.09,5,23s5.9,16.11,5.9,16.11a4.83,4.83,0,0,0-.49.4h0a10.7,10.7,0,0,0-1.26,1.36,3.9,3.9,0,0,0-.15,2.2s0,.07,0,.11a.15.15,0,0,0,0,.07v0A98.17,98.17,0,0,0,579,416.41Z" transform="translate(-562.34 -353)"/><path class="cls-30" d="M576.61,405.14a3.9,3.9,0,0,1,.15-2.2,10.7,10.7,0,0,1,1.26-1.36A5.43,5.43,0,0,0,576.61,405.14Z" transform="translate(-562.34 -353)"/><path class="cls-21" d="M787.79,375.43c.15,4.47,0,6.08,1.19,4.43s1-4.2,1.08-5.23.78-5.3-.1-6.29-2.61,1.25-2.61,1.25-2.63,3.28-1.1,4.56Z" transform="translate(-562.34 -353)"/><path class="cls-21" d="M785.22,391.63c-1.32-.05-.18,2.65.09,3.2S788.75,391.77,785.22,391.63Z" transform="translate(-562.34 -353)"/></g></g></svg>